<svg width="496" height="178" viewBox="0 0 496 178" fill="none" xmlns="http://www.w3.org/2000/svg">
<path d="M0 0.00868015V138.921L17.8705 138.977V72.8249H60.9575V55.3393H17.8705V17.4855H73.9856V0L0 0.00868015Z" fill="black"/>
<path d="M106.151 28.2073C112.588 28.2073 117.806 22.9883 117.806 16.5503C117.806 10.1123 112.588 4.89328 106.151 4.89328C99.7143 4.89328 94.4962 10.1123 94.4962 16.5503C94.4962 22.9883 99.7143 28.2073 106.151 28.2073Z" fill="black"/>
<path d="M97.0601 45.6928V138.949H114.931V45.6928H97.0601Z" fill="black"/>
<path fill-rule="evenodd" clip-rule="evenodd" d="M181.212 42.9729C157.482 42.9729 140.921 63.0471 140.921 86.881C140.921 110.715 157.482 130.789 181.212 130.789C192.077 130.789 201.03 126.582 207.547 119.733V132.149C207.547 147.6 195.412 160.514 179.575 160.514C173.883 160.514 168.227 158.307 163.721 155.201L154.767 170.712C161.919 175.324 170.435 178 179.575 178C204.893 178 225.417 157.472 225.417 132.149V45.6928H207.547V54.0286C201.03 47.1799 192.077 42.9729 181.212 42.9729ZM158.791 86.881C158.791 72.0869 170.105 60.4584 183.155 60.4584C196.205 60.4584 207.519 72.0869 207.519 86.881C207.519 101.675 196.205 113.304 183.155 113.304C170.105 113.304 158.791 101.675 158.791 86.881Z" fill="black"/>
<path d="M289.809 60.4584C279.242 60.4584 270.676 69.4149 270.676 79.9839V138.949H252.806V45.6928H270.676V54.2356C275.912 47.4655 283.627 42.9729 293.694 42.9729C306.216 42.9729 315.827 49.1936 321.393 58.7138C327.582 49.5182 337.679 42.9729 349.831 42.9729C370.17 42.9729 382.83 59.386 382.95 79.6925C382.95 79.7538 382.95 79.8151 382.95 79.8765V79.88V79.8833L382.95 79.8867C382.95 79.9191 382.95 79.9515 382.95 79.9839V138.949H365.079V79.9839C365.079 69.4149 356.513 60.4584 345.946 60.4584C335.379 60.4584 326.813 69.4149 326.813 79.9839V138.949H308.942V79.9839C308.942 69.4149 300.376 60.4584 289.809 60.4584Z" fill="black"/>
<path fill-rule="evenodd" clip-rule="evenodd" d="M478.129 56.2643C470.179 48.0535 459.291 42.9729 446.662 42.9729C420.076 42.9729 401.209 65.4868 401.209 92.3209C401.209 119.155 420.076 141.669 446.662 141.669C459.291 141.669 470.179 136.588 478.129 128.378V138.949H496V45.6928H478.129V56.2643ZM419.079 92.3209C419.079 74.5182 432.708 60.4584 448.604 60.4584C464.501 60.4584 478.129 74.5182 478.129 92.3209C478.129 110.124 464.501 124.183 448.604 124.183C432.708 124.183 419.079 110.124 419.079 92.3209Z" fill="black"/>
</svg>
